<svg id="Capa_1" enable-background="new 0 0 512 512" height="512" viewBox="0 0 512 512" width="512" xmlns="http://www.w3.org/2000/svg"><g><g><g><path d="m351 120h-50v-30h40.729l5.854-11.708c3.705-7.41 12.715-10.413 20.125-6.708 7.41 3.705 10.413 12.715 6.708 20.124l-10 20c-2.54 5.082-7.734 8.292-13.416 8.292z" fill="#08475e"/></g><g><path d="m211 120h-50c-5.682 0-10.876-3.21-13.416-8.292l-10-20c-3.705-7.41-.702-16.42 6.708-20.124 7.41-3.705 16.42-.702 20.125 6.708l5.854 11.708h40.729z" fill="#0a789b"/></g><g><path d="m144.292 198.416c-7.41-3.705-10.413-12.715-6.708-20.124l10-20c2.54-5.082 7.734-8.292 13.416-8.292h50.845v30h-41.575l-5.854 11.708c-3.705 7.41-12.715 10.413-20.124 6.708z" fill="#0a789b"/></g><g><path d="m347.584 191.708-5.855-11.708h-41.575v-30h50.846c5.682 0 10.876 3.21 13.416 8.292l10 20c3.705 7.41.702 16.42-6.708 20.124-7.409 3.705-16.419.702-20.124-6.708z" fill="#08475e"/></g></g><g><g><path d="m432 437v60h-70v-60z" fill="#08475e"/></g></g><g><path d="m397 437h35v60h-35z" fill="#05303d"/></g><g><path d="m150 437v60h-70v-60z" fill="#08475e"/></g><g><path d="m115 437h35v60h-35z" fill="#05303d"/></g><g><g><g><g><g><path d="m56 210c-8.284 0-15-6.716-15-15v-60c0-8.284 6.716-15 15-15h60c8.284 0 15 6.716 15 15s-6.716 15-15 15h-45v45c0 8.284-6.716 15-15 15z" fill="#fff5f5"/></g><g><path d="m456 210c-8.284 0-15-6.716-15-15v-45h-45c-8.284 0-15-6.716-15-15s6.716-15 15-15h60c8.284 0 15 6.716 15 15v60c0 8.284-6.716 15-15 15z" fill="#e2dff4"/></g></g></g><g><g><g><g><path d="m301 45v30c0 8.284-6.716 15-15 15h-60c-8.284 0-15-6.716-15-15v-30c0-24.853 20.147-45 45-45 24.853 0 45 20.147 45 45z" fill="#0a789b"/></g></g><path d="m286 90c8.284 0 15-6.716 15-15v-30c0-24.853-20.147-45-45-45v90z" fill="#08475e"/><g><path d="m191 164.996v-74.996c0-16.569 13.431-30 30-30h70c16.569 0 30 13.431 30 30v74.996c0 35.898-29.101 65-65 65-35.899 0-65-29.101-65-65z" fill="#ff7037"/></g><path d="m291 60h-35v169.996c35.898 0 65-29.101 65-65v-74.996c0-16.569-13.431-30-30-30z" fill="#ff4a4a"/></g></g></g><g><g><path d="m165 512h-100c-8.284 0-15-6.716-15-15s6.716-15 15-15h100c8.284 0 15 6.716 15 15s-6.716 15-15 15z" fill="#0a789b"/></g><g><path d="m165 482h-50v30h50c8.284 0 15-6.716 15-15s-6.716-15-15-15z" fill="#08475e"/></g><g><path d="m447 512h-100c-8.284 0-15-6.716-15-15s6.716-15 15-15h100c8.284 0 15 6.716 15 15s-6.716 15-15 15z" fill="#0a789b"/></g><g><g><path d="m447 482h-50v30h50c8.284 0 15-6.716 15-15s-6.716-15-15-15z" fill="#08475e"/></g></g><path d="m477 262h-160c-19.299 0-35 15.701-35 35v120c0 19.299 15.701 35 35 35h160c19.299 0 35-15.701 35-35v-120c0-19.299-15.701-35-35-35z" fill="#0a789b"/><g><path d="m477 262h-80v190h80c19.299 0 35-15.701 35-35v-120c0-19.299-15.701-35-35-35z" fill="#08475e"/></g><path d="m317 292h160c2.757 0 5 2.243 5 5v105h-170v-105c0-2.757 2.243-5 5-5z" fill="#bceaf9"/><g><path d="m482 297c0-2.757-2.243-5-5-5h-80v110h85z" fill="#aed0ff"/></g><path d="m195 262h-160c-19.299 0-35 15.701-35 35v120c0 19.299 15.701 35 35 35h160c19.299 0 35-15.701 35-35v-120c0-19.299-15.701-35-35-35z" fill="#0a789b"/><g><path d="m195 262h-80v190h80c19.299 0 35-15.701 35-35v-120c0-19.299-15.701-35-35-35z" fill="#08475e"/></g><path d="m35 292h160c2.757 0 5 2.243 5 5v105h-170v-105c0-2.757 2.243-5 5-5z" fill="#bceaf9"/><g><path d="m200 297c0-2.757-2.243-5-5-5h-80v110h85z" fill="#aed0ff"/></g></g></g></g></svg>